<svg data-v-423bf9ae="" xmlns="http://www.w3.org/2000/svg" viewBox="0 0 230.7023790425996 60" class="font"><!----><!----><!----><g data-v-423bf9ae="" id="27049bc7-018c-4312-86a1-dcea15a98661" fill="black" transform="matrix(4.2857139937731885,0,0,4.2857139937731885,-1.800002777495422,-14.785713721294847)"><path d="M0.42 11.13L0.42 11.13L0.42 11.13Q0.42 10.19 0.69 9.47L0.69 9.47L0.69 9.47Q0.96 8.75 1.42 8.32L1.42 8.32L1.42 8.32Q1.89 7.90 2.46 7.68L2.46 7.68L2.46 7.68Q3.04 7.46 3.69 7.46L3.69 7.46L3.69 7.46Q5.07 7.46 5.96 8.28L5.96 8.28L5.96 8.28Q6.13 8.21 6.27 8.15L6.27 8.15L6.27 8.15Q6.41 8.08 6.53 8.01L6.53 8.01L6.53 8.01Q6.66 7.94 6.74 7.90L6.74 7.90L6.74 7.90Q6.82 7.85 6.93 7.78L6.93 7.78L6.93 7.78Q7.04 7.71 7.08 7.69L7.08 7.69L7.08 7.69Q7.12 7.66 7.23 7.58L7.23 7.58L7.23 7.58Q7.33 7.50 7.35 7.49L7.35 7.49L7.35 7.49Q7.39 7.46 7.41 7.46L7.41 7.46L7.44 7.46L7.44 7.46Q7.46 7.46 7.46 7.49L7.46 7.49L7.46 12.05L7.46 12.05Q7.46 12.34 7.50 12.54L7.50 12.54L7.50 12.54Q7.53 12.75 7.62 12.95L7.62 12.95L7.62 12.95Q7.70 13.15 7.87 13.27L7.87 13.27L7.87 13.27Q8.04 13.39 8.29 13.42L8.29 13.42L8.29 13.42Q8.46 13.44 8.45 13.60L8.45 13.60L8.45 14.08L8.45 14.08Q8.45 14.26 8.24 14.26L8.24 14.26L8.24 14.26Q7.60 14.26 7.09 14.35L7.09 14.35L7.09 14.35Q6.57 14.44 6.33 14.53L6.33 14.53L6.33 14.53Q6.08 14.62 5.67 14.80L5.67 14.80L5.67 14.80Q5.61 14.83 5.55 14.83L5.55 14.83L5.52 14.83L5.52 14.83Q5.50 14.83 5.50 14.78L5.50 14.78L5.66 13.54L5.66 13.54Q5.58 13.72 5.46 13.90L5.46 13.90L5.46 13.90Q5.33 14.09 5.08 14.31L5.08 14.31L5.08 14.31Q4.84 14.54 4.43 14.68L4.43 14.68L4.43 14.68Q4.03 14.83 3.52 14.83L3.52 14.83L3.52 14.83Q3.12 14.83 2.71 14.71L2.71 14.71L2.71 14.71Q2.30 14.59 1.88 14.30L1.88 14.30L1.88 14.30Q1.46 14.01 1.14 13.60L1.14 13.60L1.14 13.60Q0.82 13.19 0.62 12.55L0.62 12.55L0.62 12.55Q0.42 11.91 0.42 11.13ZM2.22 10.68L2.22 10.68L2.22 10.68Q2.22 12.01 2.75 12.80L2.75 12.80L2.75 12.80Q3.29 13.59 4.16 13.59L4.16 13.59L4.16 13.59Q4.45 13.59 4.69 13.49L4.69 13.49L4.69 13.49Q4.94 13.40 5.08 13.27L5.08 13.27L5.08 13.27Q5.22 13.13 5.33 13.00L5.33 13.00L5.33 13.00Q5.43 12.86 5.47 12.76L5.47 12.76L5.50 12.67L5.50 9.86L5.50 9.86Q5.46 9.61 5.36 9.39L5.36 9.39L5.36 9.39Q5.27 9.16 5.10 8.92L5.10 8.92L5.10 8.92Q4.93 8.68 4.63 8.54L4.63 8.54L4.63 8.54Q4.33 8.39 3.94 8.39L3.94 8.39L3.94 8.39Q3.55 8.39 3.25 8.52L3.25 8.52L3.25 8.52Q2.94 8.65 2.75 8.87L2.75 8.87L2.75 8.87Q2.56 9.08 2.44 9.38L2.44 9.38L2.44 9.38Q2.32 9.68 2.27 9.99L2.27 9.99L2.27 9.99Q2.22 10.31 2.22 10.68ZM8.87 14.43L8.87 14.43L8.87 14.01L8.87 14.01Q8.87 13.80 9.08 13.80L9.08 13.80L9.08 13.80Q9.58 13.79 9.84 13.43L9.84 13.43L9.84 13.43Q10.10 13.07 10.10 12.52L10.10 12.52L10.10 12.52Q10.10 12.50 10.10 12.47L10.10 12.47L10.10 7.23L10.10 7.23Q10.10 6.88 10.07 6.66L10.07 6.66L10.07 6.66Q10.05 6.43 9.97 6.18L9.97 6.18L9.97 6.18Q9.90 5.93 9.72 5.78L9.72 5.78L9.72 5.78Q9.54 5.64 9.27 5.61L9.27 5.61L9.27 5.61Q9.09 5.59 9.11 5.43L9.11 5.43L9.11 4.96L9.11 4.96Q9.11 4.87 9.15 4.84L9.15 4.84L9.15 4.84Q9.19 4.81 9.30 4.77L9.30 4.77L9.30 4.77Q10.86 4.25 11.94 3.47L11.94 3.47L11.94 3.47Q11.98 3.45 12.00 3.45L12.00 3.45L12.03 3.45L12.03 3.45Q12.05 3.45 12.07 3.47L12.07 3.47L12.07 12.47L12.07 12.47Q12.07 13.06 12.33 13.43L12.33 13.43L12.33 13.43Q12.60 13.80 13.09 13.80L13.09 13.80L13.09 13.80Q13.30 13.80 13.30 14.01L13.30 14.01L13.30 14.43L13.30 14.43Q13.30 14.64 13.09 14.64L13.09 14.64L9.08 14.64L9.08 14.64Q8.87 14.64 8.87 14.43ZM13.30 17.23L13.30 16.81L13.30 16.81Q13.30 16.60 13.53 16.60L13.53 16.60L13.53 16.60Q14.03 16.60 14.29 16.24L14.29 16.24L14.29 16.24Q14.54 15.89 14.54 15.33L14.54 15.33L14.54 15.33Q14.54 15.30 14.54 15.27L14.54 15.27L14.55 15.00L14.55 10.46L14.55 10.46Q14.55 10.19 14.54 10.01L14.54 10.01L14.54 10.01Q14.53 9.82 14.48 9.60L14.48 9.60L14.48 9.60Q14.43 9.37 14.35 9.23L14.35 9.23L14.35 9.23Q14.26 9.09 14.10 8.98L14.10 8.98L14.10 8.98Q13.95 8.87 13.72 8.85L13.72 8.85L13.72 8.85Q13.54 8.83 13.56 8.67L13.56 8.67L13.56 8.20L13.56 8.20Q13.56 8.01 13.76 8.01L13.76 8.01L13.76 8.01Q14.40 8.01 14.92 7.92L14.92 7.92L14.92 7.92Q15.44 7.83 15.67 7.75L15.67 7.75L15.67 7.75Q15.89 7.66 16.33 7.47L16.33 7.47L16.33 7.47Q16.39 7.44 16.45 7.44L16.45 7.44L16.48 7.44L16.48 7.44Q16.50 7.44 16.50 7.49L16.50 7.49L16.34 8.74L16.34 8.74Q16.40 8.60 16.48 8.46L16.48 8.46L16.48 8.46Q16.57 8.31 16.75 8.12L16.75 8.12L16.75 8.12Q16.93 7.93 17.15 7.79L17.15 7.79L17.15 7.79Q17.37 7.65 17.72 7.55L17.72 7.55L17.72 7.55Q18.07 7.44 18.48 7.44L18.48 7.44L18.48 7.44Q18.87 7.44 19.29 7.56L19.29 7.56L19.29 7.56Q19.70 7.68 20.12 7.97L20.12 7.97L20.12 7.97Q20.54 8.25 20.86 8.66L20.86 8.66L20.86 8.66Q21.18 9.08 21.38 9.72L21.38 9.72L21.38 9.72Q21.58 10.36 21.58 11.14L21.58 11.14L21.58 11.14Q21.58 12.07 21.31 12.80L21.31 12.80L21.31 12.80Q21.04 13.52 20.58 13.95L20.58 13.95L20.58 13.95Q20.12 14.38 19.54 14.60L19.54 14.60L19.54 14.60Q18.97 14.81 18.31 14.81L18.31 14.81L18.31 14.81Q17.25 14.81 16.50 14.16L16.50 14.16L16.50 15.27L16.50 15.27Q16.50 15.87 16.76 16.24L16.76 16.24L16.76 16.24Q17.03 16.60 17.53 16.60L17.53 16.60L17.53 16.60Q17.73 16.60 17.73 16.81L17.73 16.81L17.73 17.23L17.73 17.23Q17.73 17.45 17.53 17.45L17.53 17.45L13.51 17.45L13.51 17.45Q13.30 17.45 13.30 17.23L13.30 17.23ZM16.50 9.60L16.50 12.15L16.50 12.15Q16.58 12.87 16.99 13.38L16.99 13.38L16.99 13.38Q17.40 13.90 18.06 13.90L18.06 13.90L18.06 13.90Q18.45 13.90 18.76 13.77L18.76 13.77L18.76 13.77Q19.07 13.64 19.25 13.42L19.25 13.42L19.25 13.42Q19.44 13.21 19.56 12.90L19.56 12.90L19.56 12.90Q19.69 12.60 19.74 12.28L19.74 12.28L19.74 12.28Q19.78 11.96 19.78 11.59L19.78 11.59L19.78 11.59Q19.78 10.26 19.25 9.47L19.25 9.47L19.25 9.47Q18.72 8.68 17.85 8.68L17.85 8.68L17.85 8.68Q17.55 8.68 17.31 8.78L17.31 8.78L17.31 8.78Q17.06 8.87 16.92 9.01L16.92 9.01L16.92 9.01Q16.78 9.15 16.67 9.28L16.67 9.28L16.67 9.28Q16.57 9.41 16.53 9.51L16.53 9.51L16.50 9.60ZM22.42 11.08L22.42 11.08L22.42 11.08Q22.42 10.33 22.61 9.71L22.61 9.71L22.61 9.71Q22.80 9.10 23.12 8.69L23.12 8.69L23.12 8.69Q23.43 8.29 23.87 8.01L23.87 8.01L23.87 8.01Q24.30 7.73 24.77 7.61L24.77 7.61L24.77 7.61Q25.24 7.49 25.75 7.49L25.75 7.49L25.75 7.49Q26.28 7.49 26.76 7.67L26.76 7.67L26.76 7.67Q27.23 7.85 27.57 8.13L27.57 8.13L27.57 8.13Q27.90 8.42 28.15 8.78L28.15 8.78L28.15 8.78Q28.39 9.14 28.51 9.50L28.51 9.50L28.51 9.50Q28.63 9.86 28.63 10.19L28.63 10.19L28.63 10.19Q28.63 10.31 28.51 10.36L28.51 10.36L24.45 12.14L24.45 12.14Q24.72 12.79 25.26 13.22L25.26 13.22L25.26 13.22Q25.79 13.64 26.55 13.64L26.55 13.64L26.55 13.64Q27.02 13.64 27.50 13.38L27.50 13.38L27.50 13.38Q27.98 13.13 28.33 12.61L28.33 12.61L28.33 12.61Q28.38 12.55 28.45 12.55L28.45 12.55L28.45 12.55Q28.55 12.55 29.01 12.82L29.01 12.82L29.01 12.82Q29.07 12.86 29.07 12.93L29.07 12.93L29.07 12.93Q29.07 13.02 28.98 13.18L28.98 13.18L28.98 13.18Q28.10 14.81 26.17 14.81L26.17 14.81L26.17 14.81Q25.05 14.81 24.18 14.30L24.18 14.30L24.18 14.30Q23.31 13.79 22.86 12.94L22.86 12.94L22.86 12.94Q22.42 12.10 22.42 11.08ZM24.50 9.05L24.50 9.05L24.50 9.05Q24.15 9.50 24.15 10.20L24.15 10.20L24.15 10.20Q24.15 10.90 24.28 11.27L24.28 11.27L26.53 10.13L26.53 10.13Q26.53 9.47 26.21 9.03L26.21 9.03L26.21 9.03Q25.89 8.59 25.41 8.59L25.41 8.59L25.41 8.59Q24.84 8.59 24.50 9.05ZM29.54 11.13L29.54 11.13L29.54 11.13Q29.54 10.19 29.81 9.47L29.81 9.47L29.81 9.47Q30.08 8.75 30.54 8.32L30.54 8.32L30.54 8.32Q31.01 7.90 31.58 7.68L31.58 7.68L31.58 7.68Q32.16 7.46 32.81 7.46L32.81 7.46L32.81 7.46Q34.19 7.46 35.08 8.28L35.08 8.28L35.08 8.28Q35.25 8.21 35.39 8.15L35.39 8.15L35.39 8.15Q35.53 8.08 35.65 8.01L35.65 8.01L35.65 8.01Q35.78 7.94 35.86 7.90L35.86 7.90L35.86 7.90Q35.94 7.85 36.05 7.78L36.05 7.78L36.05 7.78Q36.16 7.71 36.20 7.69L36.20 7.69L36.20 7.69Q36.24 7.66 36.35 7.58L36.35 7.58L36.35 7.58Q36.46 7.50 36.47 7.49L36.47 7.49L36.47 7.49Q36.51 7.46 36.53 7.46L36.53 7.46L36.57 7.46L36.57 7.46Q36.58 7.46 36.58 7.49L36.58 7.49L36.58 12.05L36.58 12.05Q36.59 12.34 36.62 12.54L36.62 12.54L36.62 12.54Q36.65 12.75 36.74 12.95L36.74 12.95L36.74 12.95Q36.83 13.15 36.99 13.27L36.99 13.27L36.99 13.27Q37.16 13.39 37.41 13.42L37.41 13.42L37.41 13.42Q37.58 13.44 37.57 13.60L37.57 13.60L37.57 14.08L37.57 14.08Q37.57 14.26 37.37 14.26L37.37 14.26L37.37 14.26Q36.72 14.26 36.21 14.35L36.21 14.35L36.21 14.35Q35.69 14.44 35.45 14.53L35.45 14.53L35.45 14.53Q35.21 14.62 34.79 14.80L34.79 14.80L34.79 14.80Q34.73 14.83 34.67 14.83L34.67 14.83L34.64 14.83L34.64 14.83Q34.62 14.83 34.62 14.78L34.62 14.78L34.78 13.54L34.78 13.54Q34.71 13.72 34.58 13.90L34.58 13.90L34.58 13.90Q34.45 14.09 34.20 14.31L34.20 14.31L34.20 14.31Q33.96 14.54 33.55 14.68L33.55 14.68L33.55 14.68Q33.15 14.83 32.64 14.83L32.64 14.83L32.64 14.83Q32.25 14.83 31.83 14.71L31.83 14.71L31.83 14.71Q31.42 14.59 31.00 14.30L31.00 14.30L31.00 14.30Q30.58 14.01 30.26 13.60L30.26 13.60L30.26 13.60Q29.94 13.19 29.74 12.55L29.74 12.55L29.74 12.55Q29.54 11.91 29.54 11.13ZM31.34 10.68L31.34 10.68L31.34 10.68Q31.34 12.01 31.88 12.80L31.88 12.80L31.88 12.80Q32.41 13.59 33.28 13.59L33.28 13.59L33.28 13.59Q33.57 13.59 33.81 13.49L33.81 13.49L33.81 13.49Q34.06 13.40 34.20 13.27L34.20 13.27L34.20 13.27Q34.34 13.13 34.45 13.00L34.45 13.00L34.45 13.00Q34.55 12.86 34.59 12.76L34.59 12.76L34.62 12.67L34.62 9.86L34.62 9.86Q34.58 9.61 34.48 9.39L34.48 9.39L34.48 9.39Q34.39 9.16 34.22 8.92L34.22 8.92L34.22 8.92Q34.05 8.68 33.75 8.54L33.75 8.54L33.75 8.54Q33.46 8.39 33.07 8.39L33.07 8.39L33.07 8.39Q32.68 8.39 32.37 8.52L32.37 8.52L32.37 8.52Q32.06 8.65 31.87 8.87L31.87 8.87L31.87 8.87Q31.68 9.08 31.56 9.38L31.56 9.38L31.56 9.38Q31.44 9.68 31.39 9.99L31.39 9.99L31.39 9.99Q31.34 10.31 31.34 10.68ZM37.88 11.13L37.88 11.13L37.88 11.13Q37.88 10.19 38.15 9.47L38.15 9.47L38.15 9.47Q38.42 8.75 38.88 8.32L38.88 8.32L38.88 8.32Q39.35 7.90 39.92 7.68L39.92 7.68L39.92 7.68Q40.50 7.46 41.15 7.46L41.15 7.46L41.15 7.46Q42.22 7.46 42.97 8.11L42.97 8.11L42.97 7.23L42.97 7.23Q42.97 6.88 42.95 6.66L42.95 6.66L42.95 6.66Q42.92 6.43 42.84 6.18L42.84 6.18L42.84 6.18Q42.77 5.93 42.59 5.78L42.59 5.78L42.59 5.78Q42.41 5.64 42.14 5.61L42.14 5.61L42.14 5.61Q41.96 5.59 41.97 5.43L41.97 5.43L41.97 4.96L41.97 4.96Q41.97 4.87 42.02 4.84L42.02 4.84L42.02 4.84Q42.06 4.81 42.18 4.77L42.18 4.77L42.18 4.77Q43.74 4.25 44.81 3.47L44.81 3.47L44.81 3.47Q44.85 3.45 44.87 3.45L44.87 3.45L44.91 3.45L44.91 3.45Q44.92 3.45 44.92 3.47L44.92 3.47L44.92 12.05L44.92 12.05Q44.93 12.34 44.96 12.54L44.96 12.54L44.96 12.54Q44.99 12.75 45.08 12.95L45.08 12.95L45.08 12.95Q45.17 13.15 45.33 13.27L45.33 13.27L45.33 13.27Q45.50 13.39 45.75 13.42L45.75 13.42L45.75 13.42Q45.92 13.44 45.91 13.60L45.91 13.60L45.91 14.08L45.91 14.08Q45.91 14.26 45.71 14.26L45.71 14.26L45.71 14.26Q45.07 14.26 44.55 14.35L44.55 14.35L44.55 14.35Q44.03 14.44 43.80 14.53L43.80 14.53L43.80 14.53Q43.57 14.61 43.13 14.80L43.13 14.80L43.13 14.80Q43.08 14.83 43.01 14.83L43.01 14.83L42.98 14.83L42.98 14.83Q42.95 14.83 42.96 14.78L42.96 14.78L43.12 13.54L43.12 13.54Q43.05 13.72 42.92 13.90L42.92 13.90L42.92 13.90Q42.79 14.09 42.54 14.31L42.54 14.31L42.54 14.31Q42.30 14.54 41.89 14.68L41.89 14.68L41.89 14.68Q41.49 14.83 40.98 14.83L40.98 14.83L40.98 14.83Q40.58 14.83 40.17 14.71L40.17 14.71L40.17 14.71Q39.76 14.59 39.34 14.30L39.34 14.30L39.34 14.30Q38.92 14.01 38.60 13.60L38.60 13.60L38.60 13.60Q38.28 13.19 38.08 12.55L38.08 12.55L38.08 12.55Q37.88 11.91 37.88 11.13ZM39.68 10.68L39.68 10.68L39.68 10.68Q39.68 12.01 40.22 12.80L40.22 12.80L40.22 12.80Q40.75 13.59 41.62 13.59L41.62 13.59L41.62 13.59Q41.91 13.59 42.15 13.47L42.15 13.47L42.15 13.47Q42.40 13.34 42.54 13.17L42.54 13.17L42.54 13.17Q42.68 13.00 42.79 12.83L42.79 12.83L42.79 12.83Q42.89 12.65 42.93 12.53L42.93 12.53L42.96 12.41L42.96 10.11L42.96 10.11Q42.88 9.42 42.48 8.98L42.48 8.98L42.48 8.98Q42.08 8.53 41.41 8.53L41.41 8.53L41.41 8.53Q39.68 8.53 39.68 10.68ZM46.22 11.13L46.22 11.13L46.22 11.13Q46.22 10.19 46.49 9.47L46.49 9.47L46.49 9.47Q46.76 8.75 47.22 8.32L47.22 8.32L47.22 8.32Q47.69 7.90 48.26 7.68L48.26 7.68L48.26 7.68Q48.84 7.46 49.49 7.46L49.49 7.46L49.49 7.46Q50.87 7.46 51.76 8.28L51.76 8.28L51.76 8.28Q51.93 8.21 52.07 8.15L52.07 8.15L52.07 8.15Q52.21 8.08 52.33 8.01L52.33 8.01L52.33 8.01Q52.46 7.94 52.54 7.90L52.54 7.90L52.54 7.90Q52.62 7.85 52.73 7.78L52.73 7.78L52.73 7.78Q52.84 7.71 52.88 7.69L52.88 7.69L52.88 7.69Q52.92 7.66 53.03 7.58L53.03 7.58L53.03 7.58Q53.14 7.50 53.15 7.49L53.15 7.49L53.15 7.49Q53.19 7.46 53.21 7.46L53.21 7.46L53.25 7.46L53.25 7.46Q53.26 7.46 53.26 7.49L53.26 7.49L53.26 12.05L53.26 12.05Q53.27 12.34 53.30 12.54L53.30 12.54L53.30 12.54Q53.33 12.75 53.42 12.95L53.42 12.95L53.42 12.95Q53.50 13.15 53.67 13.27L53.67 13.27L53.67 13.27Q53.84 13.39 54.09 13.42L54.09 13.42L54.09 13.42Q54.26 13.44 54.25 13.60L54.25 13.60L54.25 14.08L54.25 14.08Q54.25 14.26 54.04 14.26L54.04 14.26L54.04 14.26Q53.40 14.26 52.89 14.35L52.89 14.35L52.89 14.35Q52.37 14.44 52.13 14.53L52.13 14.53L52.13 14.53Q51.88 14.62 51.47 14.80L51.47 14.80L51.47 14.80Q51.41 14.83 51.35 14.83L51.35 14.83L51.32 14.83L51.32 14.83Q51.30 14.83 51.30 14.78L51.30 14.78L51.46 13.54L51.46 13.54Q51.39 13.72 51.26 13.90L51.26 13.90L51.26 13.90Q51.13 14.09 50.88 14.31L50.88 14.31L50.88 14.31Q50.64 14.54 50.23 14.68L50.23 14.68L50.23 14.68Q49.83 14.83 49.32 14.83L49.32 14.83L49.32 14.83Q48.92 14.83 48.51 14.71L48.51 14.71L48.51 14.71Q48.10 14.59 47.68 14.30L47.68 14.30L47.68 14.30Q47.26 14.01 46.94 13.60L46.94 13.60L46.94 13.60Q46.62 13.19 46.42 12.55L46.42 12.55L46.42 12.55Q46.22 11.91 46.22 11.13ZM48.02 10.68L48.02 10.68L48.02 10.68Q48.02 12.01 48.56 12.80L48.56 12.80L48.56 12.80Q49.09 13.59 49.96 13.59L49.96 13.59L49.96 13.59Q50.25 13.59 50.49 13.49L50.49 13.49L50.49 13.49Q50.74 13.40 50.88 13.27L50.88 13.27L50.88 13.27Q51.02 13.13 51.13 13.00L51.13 13.00L51.13 13.00Q51.23 12.86 51.27 12.76L51.27 12.76L51.30 12.67L51.30 9.86L51.30 9.86Q51.26 9.61 51.16 9.39L51.16 9.39L51.16 9.39Q51.07 9.16 50.90 8.92L50.90 8.92L50.90 8.92Q50.73 8.68 50.43 8.54L50.43 8.54L50.43 8.54Q50.13 8.39 49.75 8.39L49.75 8.39L49.75 8.39Q49.36 8.39 49.05 8.52L49.05 8.52L49.05 8.52Q48.74 8.65 48.55 8.87L48.55 8.87L48.55 8.87Q48.36 9.08 48.24 9.38L48.24 9.38L48.24 9.38Q48.12 9.68 48.07 9.99L48.07 9.99L48.07 9.99Q48.02 10.31 48.02 10.68Z"></path></g><!----><!----></svg>